<?xml version="1.0"?> <svg xmlns="http://www.w3.org/2000/svg" width="180" height="52" viewBox="0 0 180 52" fill="none"><g clip-path="url(#clip0_815_2)"><rect width="180" height="52" rx="5" fill="black"></rect><path d="M188.889 49.0804C188.889 52.2779 186.343 54.8679 183.194 54.8679H-3.18619C-6.33389 54.8679 -8.88889 52.2779 -8.88889 49.0804V2.92712C-8.88889 -0.26884 -6.33389 -2.86792 -3.18619 -2.86792H183.192C186.343 -2.86792 188.887 -0.26884 188.887 2.92712L188.889 49.0804Z" fill="black"></path><path d="M182.593 -2.79812C186.022 -2.79812 188.813 0.027503 188.813 3.5V48.5C188.813 51.9725 186.022 54.7981 182.593 54.7981H-2.59259C-6.02222 54.7981 -8.81296 51.9725 -8.81296 48.5V3.5C-8.81296 0.027503 -6.02222 -2.79812 -2.59259 -2.79812H182.593ZM182.593 -4H-2.59259C-6.66481 -4 -10 -0.623122 -10 3.5V48.5C-10 52.6231 -6.66481 56 -2.59259 56H182.593C186.665 56 190 52.6231 190 48.5V3.5C190 -0.623122 186.665 -4 182.593 -4Z" fill="#A6A6A6"></path><path d="M34.6341 25.676C34.5911 20.8415 38.5437 18.4895 38.7244 18.38C36.4859 15.0755 33.0163 14.624 31.797 14.588C28.883 14.2775 26.0563 16.3535 24.5719 16.3535C23.0578 16.3535 20.7719 14.618 18.3082 14.669C15.1378 14.7185 12.1719 16.577 10.5452 19.463C7.18815 25.3475 9.69186 33.995 12.9082 38.7515C14.517 41.081 16.397 43.682 18.8578 43.5905C21.2652 43.49 22.1644 42.0365 25.0696 42.0365C27.9482 42.0365 28.7926 43.5905 31.3022 43.532C33.8859 43.49 35.5126 41.192 37.0652 38.8415C38.9244 36.1715 39.6711 33.542 39.7007 33.407C39.64 33.386 34.683 31.4705 34.6341 25.676Z" fill="white"></path><path d="M29.8933 11.459C31.1882 9.8195 32.0741 7.589 31.8282 5.3255C29.9541 5.4095 27.6104 6.638 26.2607 8.2415C25.0667 9.6545 24 11.9705 24.2756 14.1485C26.3807 14.3075 28.5422 13.073 29.8933 11.459Z" fill="white"></path><path d="M69.4741 43.256H66.1096L64.2667 37.3925H57.8607L56.1052 43.256H52.8296L59.1763 23.294H63.0963L69.4741 43.256ZM63.7111 34.9325L62.0444 29.72C61.8681 29.1875 61.5378 27.9335 61.0504 25.9595H60.9911C60.797 26.8085 60.4844 28.0625 60.0548 29.72L58.4178 34.9325H63.7111V34.9325Z" fill="white"></path><path d="M85.7955 35.882C85.7955 38.33 85.1422 40.265 83.8355 41.6855C82.6652 42.95 81.2118 43.5815 79.477 43.5815C77.6044 43.5815 76.2592 42.9005 75.44 41.5385H75.3807V49.121H72.2222V33.6005C72.2222 32.0615 72.1822 30.482 72.1052 28.862H74.8829L75.0592 31.1435H75.1185C76.1718 29.4245 77.7704 28.5665 79.9155 28.5665C81.5926 28.5665 82.9926 29.237 84.1126 30.5795C85.2355 31.9235 85.7955 33.6905 85.7955 35.882ZM82.5778 35.999C82.5778 34.598 82.2667 33.443 81.6415 32.534C80.9585 31.586 80.0415 31.112 78.8918 31.112C78.1126 31.112 77.4044 31.376 76.7718 31.8965C76.1378 32.4215 75.7229 33.107 75.5289 33.956C75.4311 34.352 75.3822 34.676 75.3822 34.931V37.331C75.3822 38.378 75.6992 39.2615 76.3333 39.983C76.9674 40.7045 77.7911 41.0645 78.8044 41.0645C79.9941 41.0645 80.92 40.5995 81.5822 39.6725C82.2459 38.744 82.5778 37.52 82.5778 35.999Z" fill="white"></path><path d="M102.147 35.882C102.147 38.33 101.493 40.265 100.185 41.6855C99.0163 42.95 97.563 43.5815 95.8281 43.5815C93.9556 43.5815 92.6104 42.9005 91.7926 41.5385H91.7333V49.121H88.5748V33.6005C88.5748 32.0615 88.5348 30.482 88.4578 28.862H91.2356L91.4119 31.1435H91.4711C92.523 29.4245 94.1215 28.5665 96.2682 28.5665C97.9437 28.5665 99.3437 29.237 100.467 30.5795C101.585 31.9235 102.147 33.6905 102.147 35.882ZM98.9289 35.999C98.9289 34.598 98.6163 33.443 97.9911 32.534C97.3081 31.586 96.3941 31.112 95.243 31.112C94.4622 31.112 93.7556 31.376 93.1215 31.8965C92.4874 32.4215 92.0741 33.107 91.88 33.956C91.7837 34.352 91.7333 34.676 91.7333 34.931V37.331C91.7333 38.378 92.0504 39.2615 92.6815 39.983C93.3156 40.703 94.1393 41.0645 95.1556 41.0645C96.3452 41.0645 97.2711 40.5995 97.9333 39.6725C98.597 38.744 98.9289 37.52 98.9289 35.999Z" fill="white"></path><path d="M120.428 37.658C120.428 39.356 119.846 40.7375 118.677 41.804C117.393 42.9695 115.604 43.5515 113.307 43.5515C111.185 43.5515 109.484 43.1375 108.197 42.308L108.929 39.6425C110.316 40.4915 111.837 40.9175 113.495 40.9175C114.684 40.9175 115.61 40.6445 116.276 40.1015C116.938 39.5585 117.268 38.8295 117.268 37.9205C117.268 37.1105 116.996 36.428 116.449 35.8745C115.905 35.321 114.997 34.8065 113.729 34.331C110.277 33.0275 108.553 31.118 108.553 28.607C108.553 26.966 109.157 25.6205 110.367 24.5735C111.573 23.525 113.182 23.0015 115.194 23.0015C116.988 23.0015 118.479 23.318 119.668 23.9495L118.879 26.5565C117.767 25.9445 116.511 25.6385 115.105 25.6385C113.994 25.6385 113.126 25.916 112.504 26.468C111.978 26.9615 111.714 27.563 111.714 28.2755C111.714 29.0645 112.015 29.717 112.619 30.23C113.145 30.704 114.101 31.217 115.487 31.7705C117.184 32.462 118.43 33.2705 119.231 34.1975C120.03 35.1215 120.428 36.278 120.428 37.658Z" fill="white"></path><path d="M130.871 31.262H127.39V38.2505C127.39 40.028 128.003 40.916 129.233 40.916C129.797 40.916 130.265 40.8665 130.636 40.7675L130.723 43.196C130.101 43.4315 129.281 43.55 128.267 43.55C127.019 43.55 126.044 43.1645 125.341 42.395C124.64 41.624 124.287 40.331 124.287 38.5145V31.259H122.213V28.859H124.287V26.2235L127.39 25.2755V28.859H130.871V31.262Z" fill="white"></path><path d="M146.579 35.9405C146.579 38.153 145.954 39.9695 144.707 41.39C143.398 42.8525 141.662 43.5815 139.498 43.5815C137.412 43.5815 135.751 42.881 134.513 41.48C133.274 40.079 132.655 38.3105 132.655 36.179C132.655 33.9485 133.292 32.1215 134.57 30.701C135.846 29.279 137.567 28.568 139.732 28.568C141.818 28.568 143.496 29.2685 144.763 30.671C145.975 32.0315 146.579 33.788 146.579 35.9405ZM143.302 36.044C143.302 34.7165 143.022 33.578 142.455 32.6285C141.793 31.4795 140.846 30.9065 139.619 30.9065C138.35 30.9065 137.385 31.481 136.723 32.6285C136.156 33.5795 135.876 34.736 135.876 36.104C135.876 37.4315 136.156 38.57 136.723 39.518C137.406 40.667 138.36 41.24 139.591 41.24C140.797 41.24 141.744 40.655 142.427 39.488C143.009 38.5205 143.302 37.37 143.302 36.044Z" fill="white"></path><path d="M156.846 31.6745C156.533 31.616 156.2 31.586 155.85 31.586C154.739 31.586 153.88 32.0105 153.276 32.861C152.75 33.611 152.486 34.559 152.486 35.7035V43.256H149.329L149.358 33.395C149.358 31.736 149.318 30.2255 149.24 28.8635H151.991L152.107 31.6175H152.194C152.527 30.671 153.053 29.909 153.773 29.3375C154.477 28.823 155.237 28.5665 156.056 28.5665C156.348 28.5665 156.612 28.5875 156.846 28.625V31.6745Z" fill="white"></path><path d="M170.972 35.3781C170.972 35.9511 170.935 36.434 170.856 36.8285H161.381C161.418 38.2505 161.876 39.338 162.756 40.088C163.554 40.7585 164.587 41.0945 165.855 41.0945C167.258 41.0945 168.538 40.868 169.689 40.4135L170.184 42.6335C168.839 43.2275 167.25 43.523 165.418 43.523C163.213 43.523 161.483 42.866 160.224 41.5535C158.967 40.241 158.338 38.4785 158.338 36.2675C158.338 34.097 158.923 32.2895 160.095 30.848C161.321 29.3091 162.979 28.5396 165.065 28.5396C167.114 28.5396 168.665 29.3091 169.719 30.848C170.553 32.0705 170.972 33.5826 170.972 35.3781ZM167.96 34.5485C167.981 33.6005 167.775 32.7815 167.347 32.09C166.8 31.2005 165.96 30.7565 164.83 30.7565C163.797 30.7565 162.957 31.1901 162.316 32.0601C161.79 32.7516 161.477 33.581 161.381 34.547H167.96V34.5485Z" fill="white"></path><path d="M62.6667 11.0135C62.6667 12.779 62.1437 14.108 61.0993 15.0005C60.1319 15.824 58.757 16.2365 56.9763 16.2365C56.0933 16.2365 55.3378 16.1975 54.7052 16.1195V6.47304C55.5304 6.33804 56.4193 6.26904 57.3793 6.26904C59.0756 6.26904 60.3541 6.64254 61.2163 7.38954C62.1822 8.23404 62.6667 9.44154 62.6667 11.0135ZM61.0296 11.057C61.0296 9.91254 60.7304 9.03504 60.1319 8.42304C59.5333 7.81254 58.6593 7.50654 57.5082 7.50654C57.0193 7.50654 56.603 7.53954 56.2578 7.60854V14.942C56.4489 14.972 56.7985 14.9855 57.3067 14.9855C58.4948 14.9855 59.4119 14.651 60.0578 13.982C60.7037 13.313 61.0296 12.338 61.0296 11.057Z" fill="white"></path><path d="M71.3467 12.5556C71.3467 13.6431 71.04 14.5341 70.4267 15.2331C69.7837 15.9516 68.9319 16.3101 67.8682 16.3101C66.843 16.3101 66.0267 15.9666 65.4178 15.2766C64.8104 14.5881 64.5067 13.7196 64.5067 12.6726C64.5067 11.5776 64.8193 10.6791 65.4474 9.98157C66.0756 9.28407 66.92 8.93457 67.9837 8.93457C69.0089 8.93457 69.8326 9.27807 70.4563 9.96657C71.0489 10.6356 71.3467 11.4996 71.3467 12.5556ZM69.7363 12.6066C69.7363 11.9541 69.597 11.3946 69.32 10.9281C68.9941 10.3641 68.5304 10.0821 67.9274 10.0821C67.3037 10.0821 66.8296 10.3641 66.5037 10.9281C66.2252 11.3946 66.0874 11.9631 66.0874 12.6351C66.0874 13.2876 66.2267 13.8471 66.5037 14.3136C66.84 14.8776 67.3082 15.1596 67.9126 15.1596C68.5052 15.1596 68.9704 14.8731 69.3052 14.2986C69.5926 13.8231 69.7363 13.2591 69.7363 12.6066Z" fill="white"></path><path d="M82.9852 9.07849L80.8 16.1495H79.3778L78.4726 13.079C78.243 12.3125 78.0563 11.5505 77.9111 10.7945H77.883C77.7481 11.5715 77.5615 12.332 77.3215 13.079L76.36 16.1495H74.9215L72.8667 9.07849H74.4622L75.2518 12.44C75.443 13.235 75.6 13.9925 75.7259 14.7095H75.7541C75.8696 14.1185 76.0607 13.3655 76.3304 12.455L77.3215 9.07999H78.5867L79.5363 12.383C79.7659 13.1885 79.9526 13.964 80.0963 14.711H80.1393C80.2444 13.9835 80.403 13.208 80.6133 12.383L81.4607 9.07999H82.9852V9.07849Z" fill="white"></path><path d="M91.0341 16.1496H89.4815V12.0996C89.4815 10.8516 89.0133 10.2276 88.0741 10.2276C87.6133 10.2276 87.2415 10.3986 86.9526 10.7421C86.6667 11.0856 86.5215 11.4906 86.5215 11.9541V16.1481H84.9689V11.0991C84.9689 10.4781 84.9496 9.80455 84.9126 9.07555H86.277L86.3496 10.1811H86.3926C86.5733 9.83755 86.843 9.55405 87.197 9.32755C87.6178 9.06355 88.0889 8.93005 88.6044 8.93005C89.2563 8.93005 89.7985 9.14305 90.2296 9.57055C90.7659 10.0941 91.0341 10.8756 91.0341 11.9136V16.1496V16.1496Z" fill="white"></path><path d="M95.3156 16.1495H93.7645V5.83405H95.3156V16.1495Z" fill="white"></path><path d="M104.456 12.5556C104.456 13.6431 104.15 14.5341 103.536 15.2331C102.893 15.9516 102.04 16.3101 100.978 16.3101C99.9511 16.3101 99.1348 15.9666 98.5274 15.2766C97.92 14.5881 97.6163 13.7196 97.6163 12.6726C97.6163 11.5776 97.9289 10.6791 98.5571 9.98157C99.1852 9.28407 100.03 8.93457 101.092 8.93457C102.119 8.93457 102.941 9.27807 103.566 9.96657C104.159 10.6356 104.456 11.4996 104.456 12.5556ZM102.844 12.6066C102.844 11.9541 102.705 11.3946 102.428 10.9281C102.104 10.3641 101.639 10.0821 101.037 10.0821C100.412 10.0821 99.9378 10.3641 99.6133 10.9281C99.3348 11.3946 99.197 11.9631 99.197 12.6351C99.197 13.2876 99.3363 13.8471 99.6133 14.3136C99.9496 14.8776 100.418 15.1596 101.022 15.1596C101.615 15.1596 102.079 14.8731 102.413 14.2986C102.702 13.8231 102.844 13.2591 102.844 12.6066Z" fill="white"></path><path d="M111.97 16.1496H110.576L110.461 15.3351H110.418C109.941 15.9846 109.261 16.3101 108.378 16.3101C107.719 16.3101 107.185 16.0956 106.784 15.6696C106.419 15.2826 106.237 14.8011 106.237 14.2296C106.237 13.3656 106.593 12.7071 107.308 12.2511C108.022 11.7951 109.027 11.5716 110.32 11.5821V11.4501C110.32 10.5186 109.837 10.0536 108.87 10.0536C108.181 10.0536 107.573 10.2291 107.049 10.5771L106.733 9.54507C107.382 9.13857 108.184 8.93457 109.129 8.93457C110.954 8.93457 111.87 9.90957 111.87 11.8596V14.4636C111.87 15.1701 111.904 15.7326 111.97 16.1496ZM110.359 13.7196V12.6291C108.646 12.5991 107.79 13.0746 107.79 14.0541C107.79 14.4231 107.887 14.6991 108.087 14.8836C108.287 15.0681 108.542 15.1596 108.846 15.1596C109.187 15.1596 109.505 15.0501 109.796 14.8326C110.087 14.6136 110.267 14.3361 110.333 13.9956C110.35 13.9191 110.359 13.8261 110.359 13.7196Z" fill="white"></path><path d="M120.793 16.1495H119.415L119.342 15.014H119.299C118.859 15.878 118.11 16.31 117.056 16.31C116.215 16.31 115.514 15.9755 114.959 15.3065C114.403 14.6375 114.126 13.769 114.126 12.7025C114.126 11.558 114.427 10.631 115.031 9.92304C115.616 9.26304 116.333 8.93304 117.187 8.93304C118.124 8.93304 118.781 9.25255 119.154 9.89305H119.184V5.83405H120.738V14.2445C120.738 14.933 120.756 15.5675 120.793 16.1495ZM119.184 13.1675V11.9885C119.184 11.7845 119.169 11.6195 119.141 11.4935C119.053 11.1155 118.865 10.7975 118.579 10.541C118.29 10.2845 117.942 10.1555 117.541 10.1555C116.961 10.1555 116.508 10.388 116.175 10.8545C115.844 11.321 115.677 11.9165 115.677 12.644C115.677 13.343 115.836 13.91 116.154 14.3465C116.49 14.8115 116.944 15.044 117.511 15.044C118.021 15.044 118.428 14.8505 118.738 14.462C119.037 14.1035 119.184 13.6715 119.184 13.1675Z" fill="white"></path><path d="M134.071 12.5556C134.071 13.6431 133.764 14.5341 133.151 15.2331C132.508 15.9516 131.658 16.3101 130.593 16.3101C129.569 16.3101 128.753 15.9666 128.142 15.2766C127.535 14.5881 127.231 13.7196 127.231 12.6726C127.231 11.5776 127.544 10.6791 128.172 9.98157C128.8 9.28407 129.644 8.93457 130.71 8.93457C131.733 8.93457 132.559 9.27807 133.181 9.96657C133.773 10.6356 134.071 11.4996 134.071 12.5556ZM132.462 12.6066C132.462 11.9541 132.323 11.3946 132.046 10.9281C131.719 10.3641 131.256 10.0821 130.652 10.0821C130.03 10.0821 129.556 10.3641 129.228 10.9281C128.95 11.3946 128.812 11.9631 128.812 12.6351C128.812 13.2876 128.951 13.8471 129.228 14.3136C129.564 14.8776 130.033 15.1596 130.637 15.1596C131.23 15.1596 131.696 14.8731 132.031 14.2986C132.317 13.8231 132.462 13.2591 132.462 12.6066Z" fill="white"></path><path d="M142.419 16.1496H140.868V12.0996C140.868 10.8516 140.4 10.2276 139.459 10.2276C138.999 10.2276 138.627 10.3986 138.339 10.7421C138.052 11.0856 137.908 11.4906 137.908 11.9541V16.1481H136.354V11.0991C136.354 10.4781 136.336 9.80455 136.299 9.07555H137.662L137.735 10.1811H137.778C137.96 9.83755 138.23 9.55405 138.582 9.32755C139.004 9.06355 139.474 8.93005 139.991 8.93005C140.641 8.93005 141.184 9.14305 141.615 9.57055C142.153 10.0941 142.419 10.8756 142.419 11.9136V16.1496V16.1496Z" fill="white"></path><path d="M152.868 10.2561H151.159V13.6911C151.159 14.5641 151.462 15.0006 152.064 15.0006C152.342 15.0006 152.573 14.9766 152.756 14.9271L152.796 16.1196C152.489 16.2366 152.086 16.2951 151.59 16.2951C150.976 16.2951 150.499 16.1061 150.154 15.7281C149.807 15.3501 149.636 14.7141 149.636 13.8216V10.2561H148.615V9.07857H149.636V7.78257L151.157 7.31757V9.07707H152.867V10.2561H152.868Z" fill="white"></path><path d="M161.087 16.1495H159.533V12.1295C159.533 10.862 159.065 10.2275 158.127 10.2275C157.407 10.2275 156.916 10.595 156.646 11.33C156.6 11.4845 156.573 11.6735 156.573 11.8955V16.148H155.022V5.83405H156.573V10.0955H156.603C157.092 9.32005 157.793 8.93304 158.701 8.93304C159.344 8.93304 159.876 9.14604 160.298 9.57354C160.824 10.106 161.087 10.898 161.087 11.945V16.1495V16.1495Z" fill="white"></path><path d="M169.566 12.2795C169.566 12.5615 169.545 12.7985 169.508 12.992H164.852C164.873 13.691 165.095 14.2235 165.526 14.5925C165.92 14.9225 166.428 15.0875 167.05 15.0875C167.739 15.0875 168.367 14.9765 168.933 14.753L169.176 15.845C168.514 16.136 167.735 16.2815 166.833 16.2815C165.751 16.2815 164.899 15.959 164.283 15.314C163.664 14.669 163.357 13.8035 163.357 12.7175C163.357 11.651 163.643 10.763 164.219 10.055C164.821 9.29902 165.634 8.92102 166.661 8.92102C167.665 8.92102 168.428 9.29902 168.944 10.055C169.36 10.655 169.566 11.3975 169.566 12.2795ZM168.084 11.873C168.096 11.4065 167.994 11.0045 167.784 10.6655C167.514 10.229 167.104 10.01 166.548 10.01C166.041 10.01 165.628 10.223 165.313 10.6505C165.055 10.991 164.902 11.3975 164.852 11.873H168.084Z" fill="white"></path></g><defs><clipPath id="clip0_815_2"><rect width="180" height="52" rx="5" fill="white"></rect></clipPath></defs></svg>