<?xml version="1.0"?> <svg xmlns="http://www.w3.org/2000/svg" width="180" height="52" viewBox="0 0 180 52" fill="none"><g clip-path="url(#clip0_815_3)"><rect width="180" height="52" rx="5" fill="black"></rect><path d="M177.963 56H2.03704C-1.83157 56 -5 52.6231 -5 48.5V3.5C-5 -0.623122 -1.83157 -4 2.03704 -4H177.963C181.832 -4 185 -0.623122 185 3.5V48.5C185 52.6231 181.832 56 177.963 56Z" fill="black"></path><path d="M177.963 -2.79812C181.221 -2.79812 183.872 0.027503 183.872 3.5V48.5C183.872 51.9725 181.221 54.7981 177.963 54.7981H2.03704C-1.22111 54.7981 -3.87232 51.9725 -3.87232 48.5V3.5C-3.87232 0.027503 -1.22111 -2.79812 2.03704 -2.79812H177.963ZM177.963 -4H2.03704C-1.83157 -4 -5 -0.623122 -5 3.5V48.5C-5 52.6231 -1.83157 56 2.03704 56H177.963C181.832 56 185 52.6231 185 48.5V3.5C185 -0.623122 181.832 -4 177.963 -4Z" fill="#A6A6A6"></path><path d="M61.7357 11.3656C61.7357 12.6181 61.3839 13.6212 60.6907 14.3694C59.8938 15.2562 58.8558 15.7025 57.5839 15.7025C56.3682 15.7025 55.3303 15.2487 54.4788 14.3544C53.6255 13.4469 53.1998 12.3331 53.1998 11C53.1998 9.66686 53.6255 8.55311 54.4788 7.65311C55.3303 6.75124 56.3682 6.29749 57.5839 6.29749C58.1891 6.29749 58.7661 6.43061 59.3167 6.67811C59.8656 6.92749 60.3125 7.26499 60.6362 7.68124L59.9008 8.47249C59.3361 7.76186 58.5673 7.41124 57.5839 7.41124C56.6972 7.41124 55.9284 7.74124 55.2757 8.40686C54.6301 9.07436 54.3064 9.93874 54.3064 11C54.3064 12.0612 54.6301 12.9331 55.2757 13.6006C55.9284 14.2587 56.6972 14.5962 57.5839 14.5962C58.5251 14.5962 59.3167 14.2587 59.9413 13.5931C60.3529 13.1525 60.5869 12.545 60.6485 11.7687H57.5839V10.685H61.6724C61.7216 10.9194 61.7357 11.1462 61.7357 11.3656V11.3656Z" fill="white"></path><path d="M68.2221 7.6081H64.3816V10.4581H67.8438V11.5418H64.3816V14.3918H68.2221V15.4962H63.2944V6.50372H68.2221V7.6081Z" fill="white"></path><path d="M72.7997 15.4962H71.7125V7.6081H69.3568V6.50372H75.1571V7.6081H72.7997V15.4962V15.4962Z" fill="white"></path><path d="M79.3547 15.4962V6.50372H80.4402V15.4962H79.3547Z" fill="white"></path><path d="M85.2517 15.4962H84.1733V7.6081H81.8089V6.50372H87.6162V7.6081H85.2517V15.4962Z" fill="white"></path><path d="M98.5975 14.3394C97.7654 15.2487 96.7344 15.7025 95.5047 15.7025C94.2679 15.7025 93.237 15.2487 92.4049 14.3394C91.5745 13.4319 91.1611 12.3181 91.1611 11C91.1611 9.68186 91.5745 8.56811 92.4049 7.66061C93.237 6.75124 94.2679 6.29749 95.5047 6.29749C96.7274 6.29749 97.7583 6.75124 98.5904 7.66811C99.4279 8.58311 99.8413 9.68936 99.8413 11C99.8413 12.3181 99.4279 13.4319 98.5975 14.3394ZM93.2089 13.5856C93.8352 14.2587 94.5969 14.5962 95.5047 14.5962C96.4054 14.5962 97.1742 14.2587 97.7935 13.5856C98.418 12.9125 98.7347 12.0481 98.7347 11C98.7347 9.95186 98.418 9.08749 97.7935 8.41436C97.1742 7.74124 96.4054 7.40374 95.5047 7.40374C94.5969 7.40374 93.8352 7.74124 93.2089 8.41436C92.5843 9.08749 92.2677 9.95186 92.2677 11C92.2677 12.0481 92.5843 12.9125 93.2089 13.5856V13.5856Z" fill="white"></path><path d="M101.367 15.4962V6.50372H102.686L106.789 13.4975H106.836L106.789 11.7687V6.50372H107.874V15.4962H106.741L102.445 8.15747H102.397L102.445 9.89372V15.4962H101.367V15.4962Z" fill="white"></path><path d="M90.8937 28.6288C87.588 28.6288 84.8876 31.31 84.8876 35.0094C84.8876 38.6788 87.588 41.3881 90.8937 41.3881C94.2063 41.3881 96.9068 38.6788 96.9068 35.0094C96.9068 31.31 94.2063 28.6288 90.8937 28.6288ZM90.8937 38.8756C89.0799 38.8756 87.5194 37.28 87.5194 35.0094C87.5194 32.7088 89.0799 31.1413 90.8937 31.1413C92.7075 31.1413 94.275 32.7088 94.275 35.0094C94.275 37.28 92.7075 38.8756 90.8937 38.8756V38.8756ZM77.7889 28.6288C74.4763 28.6288 71.7828 31.31 71.7828 35.0094C71.7828 38.6788 74.4763 41.3881 77.7889 41.3881C81.0999 41.3881 83.7951 38.6788 83.7951 35.0094C83.7951 31.31 81.0999 28.6288 77.7889 28.6288ZM77.7889 38.8756C75.9734 38.8756 74.4076 37.28 74.4076 35.0094C74.4076 32.7088 75.9734 31.1413 77.7889 31.1413C79.6027 31.1413 81.1632 32.7088 81.1632 35.0094C81.1632 37.28 79.6027 38.8756 77.7889 38.8756ZM62.1949 30.5844V33.2957H68.2696C68.0919 34.8107 67.6169 35.9244 66.8886 36.7007C66.0019 37.6382 64.6209 38.6788 62.1949 38.6788C58.4564 38.6788 55.529 35.4632 55.529 31.4788C55.529 27.4944 58.4564 24.2788 62.1949 24.2788C64.2163 24.2788 65.687 25.1207 66.7725 26.2119L68.5652 24.3013C67.0469 22.7563 65.0273 21.5694 62.1949 21.5694C57.0684 21.5694 52.76 26.015 52.76 31.4788C52.76 36.9425 57.0684 41.3881 62.1949 41.3881C64.9657 41.3881 67.0469 40.4206 68.683 38.6056C70.3596 36.8188 70.8821 34.3063 70.8821 32.2775C70.8821 31.6475 70.8328 31.0681 70.7449 30.5844H62.1949ZM125.961 32.6863C125.467 31.2594 123.941 28.6288 120.834 28.6288C117.756 28.6288 115.193 31.2144 115.193 35.0094C115.193 38.5831 117.729 41.3881 121.13 41.3881C123.88 41.3881 125.467 39.6013 126.119 38.5606L124.079 37.1113C123.398 38.1725 122.471 38.8756 121.13 38.8756C119.798 38.8756 118.843 38.225 118.231 36.9425L126.237 33.4119L125.961 32.6863V32.6863ZM117.798 34.8106C117.729 32.3506 119.591 31.0907 120.924 31.0907C121.969 31.0907 122.856 31.6475 123.151 32.4444L117.798 34.8106V34.8106ZM111.29 41H113.922V22.25H111.29V41ZM106.98 30.05H106.892C106.301 29.3038 105.174 28.6288 103.745 28.6288C100.747 28.6288 98.0063 31.4338 98.0063 35.03C98.0063 38.6056 100.747 41.3881 103.745 41.3881C105.174 41.3881 106.301 40.7075 106.892 39.9388H106.98V40.8538C106.98 43.2931 105.758 44.6038 103.786 44.6038C102.178 44.6038 101.18 43.3663 100.768 42.3256L98.4796 43.3438C99.1393 45.035 100.886 47.1163 103.786 47.1163C106.871 47.1163 109.475 45.1813 109.475 40.4731V29.0169H106.98V30.05V30.05ZM103.97 38.8756C102.156 38.8756 100.638 37.2575 100.638 35.03C100.638 32.7819 102.156 31.1413 103.97 31.1413C105.758 31.1413 107.167 32.7819 107.167 35.03C107.167 37.2575 105.758 38.8756 103.97 38.8756V38.8756ZM138.283 22.25H131.988V41H134.613V33.8957H138.283C141.198 33.8957 144.057 31.6475 144.057 28.0719C144.057 24.4982 141.191 22.25 138.283 22.25V22.25ZM138.351 31.2875H134.613V24.8582H138.351C140.311 24.8582 141.43 26.5925 141.43 28.0719C141.43 29.5231 140.311 31.2875 138.351 31.2875ZM154.577 28.5931C152.681 28.5931 150.708 29.4856 149.897 31.4638L152.227 32.5044C152.728 31.4638 153.65 31.1263 154.625 31.1263C155.986 31.1263 157.367 31.9982 157.388 33.5375V33.7344C156.913 33.4419 155.897 33.0088 154.646 33.0088C152.137 33.0088 149.581 34.4807 149.581 37.2275C149.581 39.74 151.636 41.3581 153.945 41.3581C155.712 41.3581 156.686 40.5088 157.299 39.5206H157.388V40.97H159.923V33.7775C159.923 30.4532 157.594 28.5931 154.577 28.5931ZM154.26 38.8682C153.402 38.8682 152.206 38.4144 152.206 37.28C152.206 35.8288 153.697 35.2719 154.989 35.2719C156.145 35.2719 156.686 35.5438 157.388 35.9019C157.183 37.6381 155.78 38.8682 154.26 38.8682V38.8682ZM169.16 29.0038L166.142 37.1319H166.053L162.934 29.0038H160.103L164.79 40.3625L162.115 46.6831H164.858L172.08 29.0038H169.16V29.0038ZM145.499 41H148.131V22.25H145.499V41Z" fill="white"></path><path d="M9.6863 7.30815C9.27287 7.7694 9.03362 8.48753 9.03362 9.41753V42.59C9.03362 43.52 9.27287 44.2382 9.6863 44.6994L9.78834 44.8007L27.2296 26.2194V25.7807L9.78834 7.1994L9.6863 7.30815Z" fill="url(#paint0_linear_815_3)"></path><path d="M33.0369 32.4162L27.2296 26.2193V25.7806L33.044 19.5837L33.1742 19.6643L40.0599 23.8399C42.025 25.0249 42.025 26.9749 40.0599 28.1674L33.1742 32.3356L33.0369 32.4162V32.4162Z" fill="url(#paint1_linear_815_3)"></path><path d="M33.1742 32.3356L27.2296 26L9.68629 44.6994C10.339 45.4306 11.4033 45.5188 12.6137 44.7875L33.1742 32.3356" fill="url(#paint2_linear_815_3)"></path><path d="M33.1742 19.6644L12.6137 7.2125C11.4033 6.48875 10.339 6.57687 9.68629 7.30812L27.2296 26L33.1742 19.6644Z" fill="url(#paint3_linear_815_3)"></path></g><defs><linearGradient id="paint0_linear_815_3" x1="25.6811" y1="42.9355" x2="0.558462" y2="19.3637" gradientUnits="userSpaceOnUse"><stop stop-color="#00A0FF"></stop><stop offset="0.0066" stop-color="#00A1FF"></stop><stop offset="0.2601" stop-color="#00BEFF"></stop><stop offset="0.5122" stop-color="#00D2FF"></stop><stop offset="0.7604" stop-color="#00DFFF"></stop><stop offset="1" stop-color="#00E3FF"></stop></linearGradient><linearGradient id="paint1_linear_815_3" x1="42.6188" y1="25.9978" x2="8.56388" y2="25.9978" gradientUnits="userSpaceOnUse"><stop stop-color="#FFE000"></stop><stop offset="0.4087" stop-color="#FFBD00"></stop><stop offset="0.7754" stop-color="#FFA500"></stop><stop offset="1" stop-color="#FF9C00"></stop></linearGradient><linearGradient id="paint2_linear_815_3" x1="29.9417" y1="22.5559" x2="-4.12658" y2="-9.40942" gradientUnits="userSpaceOnUse"><stop stop-color="#FF3A44"></stop><stop offset="1" stop-color="#C31162"></stop></linearGradient><linearGradient id="paint3_linear_815_3" x1="5.27027" y1="55.7357" x2="20.4833" y2="41.4619" gradientUnits="userSpaceOnUse"><stop stop-color="#32A071"></stop><stop offset="0.0685" stop-color="#2DA771"></stop><stop offset="0.4762" stop-color="#15CF74"></stop><stop offset="0.8009" stop-color="#06E775"></stop><stop offset="1" stop-color="#00F076"></stop></linearGradient><clipPath id="clip0_815_3"><rect width="180" height="52" rx="5" fill="white"></rect></clipPath></defs></svg>