<svg width="124" height="27" viewBox="0 0 124 27" fill="none" xmlns="http://www.w3.org/2000/svg">
<path fill-rule="evenodd" clip-rule="evenodd" d="M124 8.11931V0.133682H122.233V5.15046L118.387 0.133682H116.571V8.11931H118.339V2.91129L122.296 8.11931H124ZM46.4981 27C49.0123 27 50.8415 25.2751 50.8415 22.8689C50.8415 20.4626 49.0123 18.7377 46.4981 18.7377C43.9974 18.7377 42.1682 20.4607 42.1682 22.8689C42.1682 25.2751 43.9974 27 46.4981 27ZM37.4447 8.26227C39.9589 8.26227 41.7881 6.53927 41.7881 4.13114C41.7881 1.72487 39.9589 0 37.4447 0C34.944 0 33.1148 1.72487 33.1148 4.13114C33.1148 6.53741 34.944 8.26227 37.4447 8.26227ZM103.996 8.11931V4.84968L107.169 0.131825H105.154L103.113 3.34019L101.048 0.131825H99.0317L102.229 4.84968V8.11931H103.996ZM91.632 8.11931V6.62282H88.1221V0.133682H86.3547V8.11931H91.63H91.632ZM77.0504 8.11931L74.3645 3.82293L76.842 0.133682H74.8257L72.9559 3.07468H71.5782V0.133682H69.8108V8.11931H71.5782V4.57117H72.9694L75.034 8.11931H77.0504ZM20.5014 3.78579H18.6471V1.63017H20.5014C21.2095 1.63017 21.7459 2.03679 21.7459 2.70891C21.7459 3.37918 21.2114 3.78579 20.5014 3.78579ZM4.04432 6.64695H1.76746V4.79026H4.04432C4.74088 4.79026 5.11521 5.22101 5.11521 5.72418C5.11521 6.29975 4.71773 6.64695 4.04432 6.64695ZM68.6936 26.8552L71.0573 18.8696H69.066L67.6227 24.642L66.054 18.8696H64.6724L63.0921 24.642L61.6372 18.8696H59.6595L62.0367 26.8552H63.916L65.3593 21.3724L66.8161 26.8552H68.6955H68.6936ZM29.7304 25.3828H27.4535V23.5261H29.7304C30.4269 23.5261 30.8013 23.9569 30.8013 24.46C30.8013 25.0356 30.4038 25.3828 29.7304 25.3828ZM85.797 26.8552V25.3587H82.2891V18.8696H80.5217V26.8552H85.797ZM55.5939 8.26227C58.1081 8.26227 59.9373 6.53927 59.9373 4.13114C59.9373 1.72487 58.1081 0 55.5939 0C53.0932 0 51.264 1.72487 51.264 4.13114C51.264 6.53741 53.0932 8.26227 55.5939 8.26227ZM29.6667 22.0668H27.4516V20.3308H29.6667C30.2629 20.3308 30.6372 20.7021 30.6372 21.2053C30.6372 21.7084 30.2629 22.0668 29.6667 22.0668ZM30.1896 26.8552C31.7699 26.8552 32.6034 25.8971 32.6034 24.6996C32.6034 23.6951 32.1288 22.867 31.2451 22.737C32.0284 22.5811 32.4414 21.9108 32.4414 20.9045C32.4414 19.8387 31.6329 18.8696 30.0526 18.8696H25.686V26.8552H30.1896ZM3.98257 3.32905H1.76746V1.59304H3.98257C4.5788 1.59304 4.95313 1.96438 4.95313 2.46754C4.95313 2.97071 4.5788 3.32905 3.98257 3.32905ZM4.50355 8.11931C6.08384 8.11931 6.9174 7.16126 6.9174 5.96369C6.9174 4.95922 6.44274 4.13114 5.55901 4.00117C6.3424 3.84521 6.75532 3.17494 6.75532 2.16862C6.75532 1.10287 5.94684 0.133682 4.36655 0.133682H0V8.11931H4.50355ZM23.6002 8.11931L21.7343 5.07805C22.6316 4.87381 23.552 4.12 23.552 2.70706C23.552 1.2217 22.4946 0.131825 20.7638 0.131825H16.8816V8.11745H18.649V5.28043H19.9437L21.5742 8.11745H23.6021L23.6002 8.11931Z" fill="#EAE6DF"></path>
</svg>